<?xml version="1.0" encoding="UTF-8"?>
<svg xmlns="http://www.w3.org/2000/svg" width="53" height="53" viewBox="0 0 53 53" fill="none">
  <circle cx="26.5" cy="26.5" r="26.5" fill="white"></circle>
  <g clip-path="url(#clip0_801_2849)">
    <path d="M26.4566 47.9943C38.3067 47.9943 47.9132 38.371 47.9132 26.5001C47.9132 14.6291 38.3067 5.00586 26.4566 5.00586C14.6064 5.00586 5 14.6291 5 26.5001C5 38.371 14.6064 47.9943 26.4566 47.9943Z" fill="white"></path>
    <path d="M26.4624 48C37.3413 48 46.3259 39.8875 47.7278 29.3725C42.2015 31.8677 36.6809 34.3572 31.1488 36.8583C31.1488 36.8583 30.4478 37.1543 30.2856 37.2123C29.1676 37.6359 27.9685 37.8854 26.7173 37.9319C26.416 37.9493 26.2365 37.9493 26.2365 37.9493C26.0395 37.9493 25.8483 37.9435 25.6688 37.9319C25.6108 37.9319 25.5529 37.926 25.495 37.9202C25.3386 37.9086 25.1822 37.897 25.0373 37.8796C24.9794 37.8738 24.9273 37.868 24.8694 37.8622C24.7014 37.8448 24.545 37.8216 24.4059 37.7984C24.3712 37.7926 24.3306 37.7868 24.2901 37.781C24.0642 37.7404 23.873 37.7055 23.7166 37.6707C23.7108 37.6707 23.705 37.6707 23.6992 37.6707C23.6471 37.6591 23.5949 37.6475 23.5486 37.6359C23.4617 37.6127 23.3806 37.5895 23.2937 37.5663C23.2126 37.5431 23.1315 37.5256 23.0504 37.5024C22.9346 37.4676 22.8187 37.4328 22.7028 37.3922C22.6275 37.369 22.5522 37.3458 22.4827 37.3225C22.3553 37.2761 22.2336 37.2297 22.1062 37.1833C22.0483 37.1601 21.9845 37.1368 21.9266 37.1136C21.7412 37.0382 21.5617 36.9628 21.3821 36.8757C20.3336 36.3825 19.3662 35.7441 18.5204 34.9723L22.7492 33.0574C23.3458 33.3765 23.9946 33.6144 24.6782 33.7595C25.0258 33.835 25.5703 33.9278 26.2423 33.9278C26.3697 33.9278 27.8295 33.9162 29.214 33.3127C29.3704 33.2431 29.4457 33.2082 29.4688 33.1966L37.2892 29.6742L47.8552 24.8868C47.0327 13.7683 37.7757 5 26.4624 5C15.149 5 5 14.6271 5 26.5C5 28.8676 5.38812 31.1482 6.09484 33.2779L15.0737 29.2158C15.0737 29.2158 15.0737 29.21 15.0737 29.2042L18.8448 27.4981C18.8448 27.4981 18.8448 27.5039 18.8448 27.5097L31.9598 21.5733C30.5869 19.9543 28.542 18.9213 26.2538 18.9213C22.7839 18.9213 19.8702 21.2889 19.0186 24.5038L14.7377 26.4362C14.7377 26.4362 14.7377 26.4304 14.7377 26.4246C14.7377 20.0529 19.8933 14.8883 26.2538 14.8883C30.1814 14.8883 33.6455 16.8555 35.7251 19.8614C36.4782 20.9524 37.0516 22.1826 37.3992 23.5057C37.3992 23.5115 37.3992 23.5231 37.405 23.5289L33.6455 25.2292L20.4784 31.1946L16.7304 32.8949L7.73421 36.9686C11.4069 43.5491 18.422 48 26.4798 48H26.4624Z" fill="#8061FF"></path>
  </g>
  <defs>
    <clipPath id="clip0_801_2849">
      <rect width="43" height="43" fill="white" transform="translate(5 5)"></rect>
    </clipPath>
  </defs>
</svg>
