<?xml version="1.0" encoding="UTF-8"?>
<svg xmlns="http://www.w3.org/2000/svg" width="53" height="53" viewBox="0 0 53 53" fill="none">
  <circle cx="26.5" cy="26.5" r="26.5" fill="white"></circle>
  <path d="M26.4112 48C38.2363 48 47.8225 38.3741 47.8225 26.5C47.8225 14.6259 38.2363 5 26.4112 5C14.5861 5 5 14.6259 5 26.5C5 38.3741 14.5861 48 26.4112 48Z" fill="white"></path>
  <path d="M39.3389 9.36383L20.4242 17.9986C18.9563 18.666 17.8525 19.8788 17.3209 21.405C16.7834 22.9312 16.8874 24.5676 17.6098 26.0184C18.9505 28.6993 22.2735 29.9586 25.0416 28.8386L27.463 27.736L29.1158 31.3861L26.5904 32.5409C25.3826 33.0341 24.1285 33.2721 22.8918 33.2721C19.2568 33.2721 15.7547 31.2468 14.0442 27.8173C12.8306 25.3858 12.6572 22.6352 13.5587 20.0703C14.4602 17.5054 16.3153 15.4744 18.7772 14.3486L35.1491 6.87436C32.4792 5.67314 29.5261 5 26.4112 5C14.5874 5 5 14.6271 5 26.5C5 33.3127 8.16112 39.3826 13.0848 43.317L31.9475 34.7054C33.4154 34.0381 34.5192 32.8252 35.0509 31.2991C35.5883 29.7729 35.4843 28.1364 34.7619 26.6857C33.4212 24.0047 30.0982 22.7455 27.3301 23.8654L24.9087 24.968L23.2559 21.3179L25.7813 20.1632C30.5201 18.2134 36.0333 20.285 38.3333 24.8868C39.5469 27.3182 39.7203 30.0688 38.8188 32.6337C37.9172 35.1986 36.0622 37.2297 33.6003 38.3497L17.1301 45.8703C19.9387 47.2282 23.0883 47.9884 26.4112 47.9884C38.2351 47.9884 47.8225 38.3613 47.8225 26.4884C47.8225 19.4958 44.4938 13.2808 39.3447 9.35803L39.3389 9.36383Z" fill="#EC1C24"></path>
</svg>
