<?xml version="1.0" encoding="UTF-8"?>
<svg xmlns="http://www.w3.org/2000/svg" width="54" height="54" viewBox="0 0 54 54" fill="none">
  <circle cx="27" cy="27" r="27" fill="white"></circle>
  <g clip-path="url(#clip0_801_2846)">
    <path d="M27.0071 49C39.1614 49 49.0143 39.1503 49.0143 27C49.0143 14.8497 39.1614 5 27.0071 5C14.8529 5 5 14.8497 5 27C5 39.1503 14.8529 49 27.0071 49Z" fill="#FFC013"></path>
    <path d="M29.6086 19.168L18.418 47.2603C19.7366 47.8184 21.1206 48.2519 22.5521 48.5488L32.5192 23.5917H42.4684L44.2563 19.168H29.6027H29.6086Z" fill="white"></path>
    <path d="M14.9427 39.2263H19.6055L29.2162 14.7324L13.7488 14.7384L11.9609 19.1621L22.8071 19.168L14.9427 39.2263Z" fill="white"></path>
  </g>
  <defs>
    <clipPath id="clip0_801_2846">
      <rect width="44" height="44" fill="white" transform="translate(5 5)"></rect>
    </clipPath>
  </defs>
</svg>
