<?xml version="1.0" encoding="UTF-8"?>
<svg xmlns="http://www.w3.org/2000/svg" width="54" height="54" viewBox="0 0 54 54" fill="none">
  <circle cx="27" cy="27" r="27" fill="white"></circle>
  <g clip-path="url(#clip0_801_2845)">
    <rect x="5.5" y="5" width="43" height="43" rx="21.5" fill="#00B487"></rect>
    <path d="M30.729 24.4071H24.4886V28.9762H30.729C32.1718 28.9762 33.3473 30.1519 33.3473 31.5947V47.7679C34.9504 47.3328 36.4847 46.7182 37.916 45.9471V31.5947C37.916 27.6325 34.6908 24.4071 30.729 24.4071ZM45.8511 15.5017C38.6985 15.5017 28.7519 15.4979 26.4198 15.5017C20.374 15.5208 15.4962 20.5747 15.5 26.7928C15.5076 32.7666 20.4962 37.8434 26.4046 37.8167C26.458 37.8167 26.5115 37.8128 26.5649 37.8128V37.8205L29.584 37.8014V33.3544H26.9046C26.1603 33.3811 25.4046 33.2743 24.6336 33.0262C21.4924 32.0184 19.5916 28.8769 20.1145 25.5446C20.6031 22.426 23.4046 20.0174 26.5992 20.0059C30.1336 19.9945 41.2099 19.9983 48.0191 19.9983C47.4695 18.4065 46.7366 16.9026 45.8511 15.5093V15.5017Z" fill="white"></path>
  </g>
  <defs>
    <clipPath id="clip0_801_2845">
      <rect x="5.5" y="5" width="43" height="43" rx="21.5" fill="white"></rect>
    </clipPath>
  </defs>
</svg>
