<?xml version="1.0" encoding="UTF-8"?>
<svg xmlns="http://www.w3.org/2000/svg" width="53" height="53" viewBox="0 0 53 53" fill="none">
  <circle cx="26.5" cy="26.5" r="26.5" fill="white"></circle>
  <g clip-path="url(#clip0_801_2847)">
    <path d="M23.253 15.0565C21.1624 18.9656 19.008 22.6195 17.2135 26.4416C15.152 30.8495 16.9696 36.3361 21.0811 38.9461C22.8639 40.0828 25.0765 40.5758 27.3355 40.5294C26.9522 39.6478 26.2321 38.0529 25.7211 36.9335C25.7211 36.9335 25.1055 36.8871 24.5829 36.7827C20.8372 36.0577 19.2519 32.0036 20.4598 28.3846C21.0521 26.6214 22.0277 24.9858 22.9336 23.0661C24.2577 25.9544 29.3796 37.5367 33.5085 46.8396L34.0196 46.654C34.85 46.3466 35.6572 45.9871 36.4412 45.5811C31.5167 34.1554 25.3668 19.6558 23.2588 15.0449" fill="white"></path>
    <path d="M35.121 34.4343C36.2593 31.0182 36.0792 27.7877 35.1965 25.8505L25.905 5.01172C24.5926 5.04652 23.315 5.20311 22.0723 5.46411L35.1269 34.4401L35.121 34.4343Z" fill="white"></path>
    <path d="M26.5273 5H25.9001V5.0116L35.2032 25.8562C36.0859 27.7934 36.266 31.0181 35.1278 34.44L22.0674 5.46399C12.3171 7.51133 5 16.1531 5 26.5C5 35.7449 10.842 43.6269 19.0418 46.6602C21.3763 47.5244 23.8966 48 26.5273 48C29.158 48 31.6841 47.5244 34.0128 46.6602L33.5017 46.8458C29.3728 37.5429 24.2509 25.9548 22.9268 23.0723C22.0209 24.9862 21.0453 26.6218 20.453 28.3907C19.2451 32.0098 20.8362 36.0639 24.5761 36.7889C25.1045 36.8933 25.7143 36.9397 25.7143 36.9397C26.2253 38.0591 26.9454 39.654 27.3287 40.5356C25.0697 40.5762 22.8571 40.0832 21.0743 38.9523C16.9628 36.3423 15.1452 30.8557 17.2067 26.4478C18.9954 22.6257 21.1556 18.9718 23.2462 15.0627C25.36 19.6736 31.5099 34.1732 36.4286 45.5989C43.3333 42.0204 48.0488 34.8112 48.0488 26.5058C48.0546 14.6277 38.4146 5 26.5273 5Z" fill="#299ED6"></path>
  </g>
  <defs>
    <clipPath id="clip0_801_2847">
      <rect width="43" height="43" fill="white" transform="translate(5 5)"></rect>
    </clipPath>
  </defs>
</svg>
